<svg id="Capa_1" enable-background="new 0 0 441.235 441.235" viewBox="0 0 441.235 441.235" xmlns="http://www.w3.org/2000/svg"><g><g><path d="m225.996 235.842v-86.176h-10.759v86.176h-163.471v92.521h10.71v-81.761h152.761v86.38h10.759v-86.38h152.763v86.38h10.708v-97.14z" fill="#e1e6e9"/><path d="m155.401 61.207h125.966c6.783 0 12.282 5.498 12.282 12.282v99.422c0 6.783-5.498 12.282-12.282 12.282h-125.966c-6.783 0-12.282-5.498-12.282-12.282v-99.422c0-6.784 5.5-12.282 12.282-12.282z" fill="#e56353"/><path d="m175.753 285.934h89.678c6.783 0 12.282 5.498 12.282 12.282v69.53c0 6.783-5.498 12.282-12.282 12.282h-89.678c-6.783 0-12.282-5.498-12.282-12.282v-69.53c0-6.782 5.498-12.282 12.282-12.282z" fill="#27a2db"/><path d="m339.275 285.934h89.678c6.783 0 12.282 5.498 12.282 12.282v69.53c0 6.783-5.498 12.282-12.282 12.282h-89.678c-6.783 0-12.282-5.498-12.282-12.282v-69.53c0-6.782 5.498-12.282 12.282-12.282z" fill="#44c4a1"/><path d="m12.282 285.934h89.678c6.783 0 12.282 5.498 12.282 12.282v69.53c0 6.783-5.498 12.282-12.282 12.282h-89.678c-6.783 0-12.282-5.498-12.282-12.282v-69.53c0-6.782 5.498-12.282 12.282-12.282z" fill="#fcd462"/><g fill="#d15241"><path d="m167.734 95.413h105.716v7.461h-105.716z"/><path d="m167.734 119.469h105.716v7.461h-105.716z"/><path d="m167.734 143.526h105.716v7.461h-105.716z"/></g><path d="m344.146 311.97h79.883v5.633h-79.883z" fill="#3ea69b"/><path d="m344.146 330.139h79.883v5.633h-79.883z" fill="#3ea69b"/><path d="m344.146 348.308h79.883v5.633h-79.883z" fill="#3ea69b"/><path d="m183.518 311.97h79.883v5.633h-79.883z" fill="#2d93ba"/><path d="m183.518 330.139h79.883v5.633h-79.883z" fill="#2d93ba"/><path d="m183.518 348.308h79.883v5.633h-79.883z" fill="#2d93ba"/><path d="m17.204 311.97h79.883v5.633h-79.883z" fill="#f7be56"/><path d="m17.204 330.139h79.883v5.633h-79.883z" fill="#f7be56"/><path d="m17.204 348.308h79.883v5.633h-79.883z" fill="#f7be56"/></g></g></svg>