<?xml version="1.0" encoding="UTF-8" standalone="no"?>
<!DOCTYPE svg PUBLIC "-//W3C//DTD SVG 1.1//EN" "http://www.w3.org/Graphics/SVG/1.1/DTD/svg11.dtd">
<svg version="1.1" xmlns="http://www.w3.org/2000/svg" xmlns:xlink="http://www.w3.org/1999/xlink" preserveAspectRatio="xMidYMid meet" viewBox="0 0 640 640"><defs><path d="M7.04 7.04L632.96 7.04L632.96 632.96L7.04 632.96L7.04 7.04Z" id="a1SYT2qKOH"></path><path d="M445.89 291.46C426.73 282.66 405.37 276.35 399 261.83C396.74 253.38 396.44 248.62 397.87 243.51C401.98 226.91 421.79 221.73 437.5 226.49C447.61 229.88 457.19 237.68 462.96 250.11C489.97 232.62 489.92 232.74 508.78 220.72C501.87 210.01 498.19 205.07 493.67 200.49C477.42 182.35 455.29 173 419.89 173.72C418.04 173.96 403.29 175.86 401.45 176.1C383.78 180.57 366.94 189.84 357.06 202.28C327.43 235.9 335.88 294.74 371.94 318.95C407.46 345.61 459.64 351.68 466.3 376.61C472.79 407.13 443.87 417.01 415.13 413.5C393.95 409.09 382.17 398.33 369.44 378.75C346 392.32 346 392.32 321.9 406.18C327.61 418.67 333.62 424.33 343.2 435.15C388.54 481.14 502 478.88 522.35 409.27C523.17 406.88 528.65 390.94 524.25 366.37C519.66 337.81 501.04 313.83 445.89 291.46ZM231.28 177.4C231.13 268.22 231.05 318.67 231.04 328.76C231.04 360.95 232.7 390.46 227.47 399.51C218.9 417.3 196.71 415.09 186.59 411.64C176.3 406.58 171.06 399.39 165 389.22C163.33 386.3 162.08 384.04 161.66 383.86C156.9 386.78 118.82 410.1 114.06 413.01C121.98 429.26 133.64 443.36 148.57 452.52C170.88 465.91 200.87 470.01 232.23 462.81C252.64 456.87 270.25 444.55 279.47 425.81C292.8 401.23 289.94 371.49 289.82 338.59C290.12 284.91 289.82 231.25 289.82 177.4C282.01 177.4 262.5 177.4 231.28 177.4Z" id="fXGBObaRG"></path></defs><g><g><g><use xlink:href="#a1SYT2qKOH" opacity="1" fill="#f0db4f" fill-opacity="1"></use></g><g><use xlink:href="#fXGBObaRG" opacity="1" fill="#323330" fill-opacity="1"></use><g><use xlink:href="#fXGBObaRG" opacity="1" fill-opacity="0" stroke="#000000" stroke-width="1" stroke-opacity="0"></use></g></g></g></g></svg>